<svg xmlns="http://www.w3.org/2000/svg" xmlns:xlink="http://www.w3.org/1999/xlink" width="500" zoomAndPan="magnify" viewBox="0 0 375 374.999991" height="500" preserveAspectRatio="xMidYMid meet" version="1.0"><defs><g/><clipPath id="16c7c41752"><path d="M 103.40625 101.34375 L 287.785156 101.34375 L 287.785156 250.71875 L 103.40625 250.71875 Z M 103.40625 101.34375 " clip-rule="nonzero"/></clipPath><clipPath id="6626677011"><path d="M 282.933594 200.898438 C 285.539062 193.242188 287.246094 184.535156 287.246094 175.992188 C 287.246094 167.445312 285.78125 159.222656 283.179688 151.648438 C 283.097656 151.484375 283.097656 151.324219 283.015625 151.164062 C 272.597656 122.707031 245.089844 101.75 212.945312 101.34375 L 103.40625 101.34375 L 103.40625 250.71875 L 212.863281 250.71875 C 245.253906 250.316406 272.761719 229.679688 282.933594 200.898438 Z M 282.933594 200.898438 " clip-rule="nonzero"/></clipPath><clipPath id="207b0fb8fe"><path d="M 95.625 115.542969 L 275 115.542969 L 275 236.519531 L 95.625 236.519531 Z M 95.625 115.542969 " clip-rule="nonzero"/></clipPath><clipPath id="9afab9dbca"><path d="M 271.253906 196.171875 C 273.363281 189.96875 274.746094 182.917969 274.746094 176 C 274.746094 169.078125 273.558594 162.417969 271.449219 156.28125 C 271.382812 156.152344 271.382812 156.019531 271.320312 155.890625 C 262.882812 132.84375 240.601562 115.867188 213.894531 115.542969 L 95.625 115.542969 L 95.625 236.519531 L 213.808594 236.519531 C 240.734375 236.195312 263.011719 219.480469 271.253906 196.171875 Z M 271.253906 196.171875 " clip-rule="nonzero"/></clipPath><clipPath id="a4c7d6db1a"><path d="M 118.765625 122.730469 L 208.242188 122.730469 L 208.242188 229.683594 L 118.765625 229.683594 Z M 118.765625 122.730469 " clip-rule="nonzero"/></clipPath><clipPath id="3187a24880"><path d="M 163.503906 122.730469 L 208.242188 229.347656 L 118.765625 229.347656 Z M 163.503906 122.730469 " clip-rule="nonzero"/></clipPath><clipPath id="fdb2ee562d"><path d="M 104.378906 158.144531 L 222.632812 158.144531 L 222.632812 299.492188 L 104.378906 299.492188 Z M 104.378906 158.144531 " clip-rule="nonzero"/></clipPath><clipPath id="2c743e08e3"><path d="M 163.503906 158.144531 L 222.632812 299.054688 L 104.378906 299.054688 Z M 163.503906 158.144531 " clip-rule="nonzero"/></clipPath><clipPath id="0d68c33ccf"><path d="M 0 158 L 145 158 L 145 286 L 0 286 Z M 0 158 " clip-rule="nonzero"/></clipPath><clipPath id="0335c9b00c"><path d="M -15.933594 155.867188 L 145.003906 167.453125 L 136.332031 287.921875 L -24.605469 276.335938 Z M -15.933594 155.867188 " clip-rule="nonzero"/></clipPath><clipPath id="383f9e0606"><path d="M 24.222656 158.757812 L 144.691406 167.429688 L 95.863281 285.007812 L -24.605469 276.335938 Z M 24.222656 158.757812 " clip-rule="nonzero"/></clipPath><clipPath id="de7172ac28"><path d="M 26.4375 18.449219 L 144.691406 18.449219 L 144.691406 159.800781 L 26.4375 159.800781 Z M 26.4375 18.449219 " clip-rule="nonzero"/></clipPath><clipPath id="80319d5e15"><path d="M 85.566406 18.449219 L 144.691406 159.359375 L 26.4375 159.359375 Z M 85.566406 18.449219 " clip-rule="nonzero"/></clipPath></defs><rect x="-37.5" width="450" fill="#ffffff" y="-37.499999" height="449.999989" fill-opacity="1"/><rect x="-37.5" width="450" fill="#01031a" y="-37.499999" height="449.999989" fill-opacity="1"/><g clip-path="url(#16c7c41752)"><g clip-path="url(#6626677011)"><path fill="#ffffff" d="M 103.40625 250.71875 L 103.40625 101.34375 L 287.203125 101.34375 L 287.203125 250.71875 Z M 103.40625 250.71875 " fill-opacity="1" fill-rule="nonzero"/></g></g><g clip-path="url(#207b0fb8fe)"><g clip-path="url(#9afab9dbca)"><path fill="#01031a" d="M 95.625 236.519531 L 95.625 115.542969 L 274.734375 115.542969 L 274.734375 236.519531 Z M 95.625 236.519531 " fill-opacity="1" fill-rule="nonzero"/></g></g><g clip-path="url(#a4c7d6db1a)"><g clip-path="url(#3187a24880)"><path fill="#ffffff" d="M 118.765625 122.730469 L 208.242188 122.730469 L 208.242188 229.332031 L 118.765625 229.332031 Z M 118.765625 122.730469 " fill-opacity="1" fill-rule="nonzero"/></g></g><g clip-path="url(#fdb2ee562d)"><g clip-path="url(#2c743e08e3)"><path fill="#01031a" d="M 104.378906 158.144531 L 222.632812 158.144531 L 222.632812 299.03125 L 104.378906 299.03125 Z M 104.378906 158.144531 " fill-opacity="1" fill-rule="nonzero"/></g></g><g clip-path="url(#0d68c33ccf)"><g clip-path="url(#0335c9b00c)"><g clip-path="url(#383f9e0606)"><path fill="#01031a" d="M -15.933594 155.867188 L 144.535156 167.417969 L 135.863281 287.886719 L -24.605469 276.335938 Z M -15.933594 155.867188 " fill-opacity="1" fill-rule="nonzero"/></g></g></g><g clip-path="url(#de7172ac28)"><g clip-path="url(#80319d5e15)"><path fill="#01031a" d="M 26.4375 18.449219 L 144.691406 18.449219 L 144.691406 159.335938 L 26.4375 159.335938 Z M 26.4375 18.449219 " fill-opacity="1" fill-rule="nonzero"/></g></g></svg>